<svg xmlns="http://www.w3.org/2000/svg" viewBox="0 0 1024 256" width="1024" height="256" data-frames="4" data-style="platt"><g transform="translate(0 0)"><ellipse cx="128" cy="236" rx="60" ry="10" fill="#000" opacity=".18"/>
  <g transform="translate(0 0)">
  <rect x="96" y="176" width="22" height="50" rx="8" fill="#5b6c8f"/><rect x="138" y="176" width="22" height="50" rx="8" fill="#4a5a7a"/>
  <rect x="78" y="96" width="100" height="90" rx="22" fill="#6c8ebf"/><rect x="78" y="150" width="100" height="36" rx="18" fill="#5a7aa8"/>
  <circle cx="128" cy="140" r="16" fill="#ffd23f"/><circle cx="128" cy="140" r="8" fill="#fff3a0"/>
  <rect x="56" y="104" width="22" height="60" rx="11" fill="#5a7aa8" transform="rotate(0 67 110)"/>
  <rect x="178" y="104" width="22" height="60" rx="11" fill="#4f6d99" transform="rotate(0 189 110)"/>
  <rect x="88" y="30" width="80" height="62" rx="20" fill="#8fb3e6"/><rect x="88" y="66" width="80" height="26" rx="13" fill="#7aa0d6"/>
  <rect x="100" y="46" width="56" height="22" rx="11" fill="#1d2b4a"/><circle cx="116" cy="57" r="6" fill="#4cc9f0"/><circle cx="140" cy="57" r="6" fill="#4cc9f0"/>
  <line x1="128" y1="30" x2="128" y2="12" stroke="#8fb3e6" stroke-width="5" stroke-linecap="round"/><circle cx="128" cy="10" r="7" fill="#ffd23f"/></g></g><g transform="translate(256 0)"><ellipse cx="128" cy="236" rx="60" ry="10" fill="#000" opacity=".18"/>
  <g transform="translate(0 -6)">
  <rect x="104" y="176" width="22" height="50" rx="8" fill="#5b6c8f"/><rect x="130" y="176" width="22" height="50" rx="8" fill="#4a5a7a"/>
  <rect x="78" y="96" width="100" height="90" rx="22" fill="#6c8ebf"/><rect x="78" y="150" width="100" height="36" rx="18" fill="#5a7aa8"/>
  <circle cx="128" cy="140" r="16" fill="#ffd23f"/><circle cx="128" cy="140" r="8" fill="#fff3a0"/>
  <rect x="56" y="114" width="22" height="60" rx="11" fill="#5a7aa8" transform="rotate(18 67 110)"/>
  <rect x="178" y="94" width="22" height="60" rx="11" fill="#4f6d99" transform="rotate(-18 189 110)"/>
  <rect x="88" y="30" width="80" height="62" rx="20" fill="#8fb3e6"/><rect x="88" y="66" width="80" height="26" rx="13" fill="#7aa0d6"/>
  <rect x="100" y="46" width="56" height="22" rx="11" fill="#1d2b4a"/><circle cx="119" cy="57" r="6" fill="#4cc9f0"/><circle cx="143" cy="57" r="6" fill="#4cc9f0"/>
  <line x1="128" y1="30" x2="128" y2="12" stroke="#8fb3e6" stroke-width="5" stroke-linecap="round"/><circle cx="128" cy="10" r="7" fill="#ff5d8f"/></g></g><g transform="translate(512 0)"><ellipse cx="128" cy="236" rx="60" ry="10" fill="#000" opacity=".18"/>
  <g transform="translate(0 0)">
  <rect x="96" y="176" width="22" height="50" rx="8" fill="#5b6c8f"/><rect x="138" y="176" width="22" height="50" rx="8" fill="#4a5a7a"/>
  <rect x="78" y="96" width="100" height="90" rx="22" fill="#6c8ebf"/><rect x="78" y="150" width="100" height="36" rx="18" fill="#5a7aa8"/>
  <circle cx="128" cy="140" r="16" fill="#ffd23f"/><circle cx="128" cy="140" r="8" fill="#fff3a0"/>
  <rect x="56" y="104" width="22" height="60" rx="11" fill="#5a7aa8" transform="rotate(0 67 110)"/>
  <rect x="178" y="104" width="22" height="60" rx="11" fill="#4f6d99" transform="rotate(0 189 110)"/>
  <rect x="88" y="30" width="80" height="62" rx="20" fill="#8fb3e6"/><rect x="88" y="66" width="80" height="26" rx="13" fill="#7aa0d6"/>
  <rect x="100" y="46" width="56" height="22" rx="11" fill="#1d2b4a"/><circle cx="116" cy="57" r="6" fill="#4cc9f0"/><circle cx="140" cy="57" r="6" fill="#4cc9f0"/>
  <line x1="128" y1="30" x2="128" y2="12" stroke="#8fb3e6" stroke-width="5" stroke-linecap="round"/><circle cx="128" cy="10" r="7" fill="#ffd23f"/></g></g><g transform="translate(768 0)"><ellipse cx="128" cy="236" rx="60" ry="10" fill="#000" opacity=".18"/>
  <g transform="translate(0 -6)">
  <rect x="88" y="176" width="22" height="50" rx="8" fill="#5b6c8f"/><rect x="146" y="176" width="22" height="50" rx="8" fill="#4a5a7a"/>
  <rect x="78" y="96" width="100" height="90" rx="22" fill="#6c8ebf"/><rect x="78" y="150" width="100" height="36" rx="18" fill="#5a7aa8"/>
  <circle cx="128" cy="140" r="16" fill="#ffd23f"/><circle cx="128" cy="140" r="8" fill="#fff3a0"/>
  <rect x="56" y="94" width="22" height="60" rx="11" fill="#5a7aa8" transform="rotate(-18 67 110)"/>
  <rect x="178" y="114" width="22" height="60" rx="11" fill="#4f6d99" transform="rotate(18 189 110)"/>
  <rect x="88" y="30" width="80" height="62" rx="20" fill="#8fb3e6"/><rect x="88" y="66" width="80" height="26" rx="13" fill="#7aa0d6"/>
  <rect x="100" y="46" width="56" height="22" rx="11" fill="#1d2b4a"/><circle cx="113" cy="57" r="6" fill="#4cc9f0"/><circle cx="137" cy="57" r="6" fill="#4cc9f0"/>
  <line x1="128" y1="30" x2="128" y2="12" stroke="#8fb3e6" stroke-width="5" stroke-linecap="round"/><circle cx="128" cy="10" r="7" fill="#ff5d8f"/></g></g></svg>