<svg xmlns="http://www.w3.org/2000/svg" viewBox="0 0 1024 1024" width="1024" height="1024">
<defs><linearGradient id="bg" x1="0" y1="0" x2="1" y2="1"><stop offset="0" stop-color="#7B5CFF"/><stop offset=".6" stop-color="#9B6BFF"/><stop offset="1" stop-color="#FF6FA0"/></linearGradient></defs>
<rect x="100" y="100" width="824" height="824" rx="185" fill="url(#bg)"/>
<g transform="translate(202 190) scale(3.1)">
  <defs>
    <linearGradient id="mt1g" x1="0" y1="0" x2="0" y2="1">
      <stop offset="0" stop-color="#FFFFFF"/><stop offset="1" stop-color="#E9E4FF"/>
    </linearGradient>
    <radialGradient id="mt1s" cx=".5" cy=".5" r=".5">
      <stop offset="0" stop-color="#1E1B3A" stop-opacity=".22"/><stop offset="1" stop-color="#1E1B3A" stop-opacity="0"/>
    </radialGradient>
  </defs>
  <ellipse class="mt-shadow" cx="104" cy="190" rx="54" ry="7" fill="url(#mt1s)"/>
  <g class="mt-body">
    <path d="M100 20C152 20 184 50 184 88C184 127 151 153 104 155C92 155 81 153 71 150L45 178C40 183 33 179 35 173L45 142C27 130 16 111 16 88C16 50 48 20 100 20Z" fill="url(#mt1g)" stroke="#1E1B3A" stroke-width="7" stroke-linejoin="round"/>
    <path d="M44 62C52 44 70 34 92 32" fill="none" stroke="#fff" stroke-width="7" stroke-linecap="round" opacity=".9"/>
    
    <g class="mt-eyes"><g class="mt-eye"><ellipse cx="78" cy="82" rx="15.5" ry="23" fill="#1E1B3A"/><circle cx="72.5" cy="71" r="5.5" fill="#fff"/><circle cx="82" cy="92" r="2.6" fill="#fff" opacity=".85"/></g><g class="mt-eye"><ellipse cx="122" cy="82" rx="15.5" ry="23" fill="#1E1B3A"/><circle cx="116.5" cy="71" r="5.5" fill="#fff"/><circle cx="126" cy="92" r="2.6" fill="#fff" opacity=".85"/></g></g>
    <ellipse cx="58" cy="110" rx="11" ry="6" fill="#FF8FB1" opacity=".55"/>
    <ellipse cx="142" cy="110" rx="11" ry="6" fill="#FF8FB1" opacity=".55"/>
    <path class="mt-smile" d="M89 118q11 10 22 0" stroke="#1E1B3A" stroke-width="5.5" stroke-linecap="round" fill="none"/><ellipse class="mt-talk" cx="100" cy="122" rx="9" ry="7" fill="#1E1B3A" opacity="0"/>
  </g>
</g></svg>